<?xml version="1.0" encoding="utf-8"?>
<!-- Generator: Adobe Illustrator 27.3.1, SVG Export Plug-In . SVG Version: 6.00 Build 0)  -->
<svg version="1.1" id="Слой_1" xmlns="http://www.w3.org/2000/svg" xmlns:xlink="http://www.w3.org/1999/xlink" x="0px" y="0px"
	 viewBox="0 0 3000 1500" style="enable-background:new 0 0 3000 1500;" xml:space="preserve">
<g>
	<g>
		<path d="M600.3,626.3c-2.8-1.6-4.5-2.6-6.3-3.6c-0.5,0.3-0.9,0.7-1.4,1c1.3,2.4,2.3,5.1,4,7.2c6.1,7.5,7,15.5,3.1,24.2
			c-0.7,1.5-1,3.2-1.4,4.8c-2.1,10.6,0.6,13.4,9.1,14.2c4.2,0.4,6.8,3.2,8.5,6.9c3.9,8.6,7.9,17.2,11.7,25.9
			c3.9,9.1,7.6,11.2,17.5,10c5.6-0.7,11.2-1.6,16.8-2.3c0.4-0.1,0.9,0.3,2,0.7c-0.5,2-1,4-1.6,5.9c-7.9,23.9-21.8,44.4-37,64
			c-4.8,6.2-9.8,12.2-14.8,18.2c-15.5,18.1-34.9,24.1-57.9,17.8c-7.2-2-14.3-4.4-21.3-7c-23.6-9-47.1-9.1-70.7-0.3
			c-6.7,2.5-13.5,4.7-20.2,7.1c-20.5,7.4-38.2,2.7-53.8-11.9c-15.4-14.5-28.4-30.8-39.3-48.9c-27.5-45.5-42-94.7-40.1-148.1
			c1.3-37.3,15-69.3,43.3-94.3c17.7-15.6,38.7-23.8,62.2-25.3c14.8-0.9,28.7,4.3,42.6,8.3c5.6,1.6,11,3.9,16.3,6.3
			c11,5.1,22.1,5.2,33.5,1.6c16.1-5.1,32.1-11.3,48.7-14.5c37.7-7.4,69.6,4.3,95.4,32.8c4.4,4.9,4.1,5.7-2.4,7.6
			c-34.9,10.1-57,49.1-47.9,84.3C599.3,621,599.7,623.2,600.3,626.3z"/>
		<path d="M2142.3,824.1c-58.5,0-116.9,0-175.4,0c-8.8,0-9.2-0.5-9.2-9.5c0-96.3,0-192.5,0-288.8c0-8.6,0.5-9.2,9.1-9.2
			c25,0,50,0,75,0c6.6,0,7.5,0.9,7.5,7.7c0,68.1,0,136.2,0,204.4c0,14.2,2,15.5,15.1,10.2c19.8-7.9,29.5-23.3,31.9-44.1
			c0.5-4,0.2-8.1,0.2-12.2c0-51.5,0-103,0-154.5c0-11.4,0-11.4,11.2-11.4c23.8,0,47.6,0,71.5,0c7.8,0,8.1,0.4,8.1,8.4
			c0,65.9,0,131.8,0,197.8c0,2,0,4.1,0,6.1c0,13.6,1.8,14.9,14.7,10.5c19.4-6.6,32.7-26.4,32.9-49.8c0.2-34.6,0.1-69.1,0.1-103.7
			c0-20.5,0-41,0-61.5c0-7.3,0.5-7.7,7.7-7.7c25.7,0,51.3,0,77,0c6.6,0,7.2,0.6,7.2,7.2c0,97.4,0,194.9,0,292.3c0,7-0.7,7.8-7.8,7.8
			C2260.3,824.1,2201.3,824.1,2142.3,824.1C2142.3,824.1,2142.3,824.1,2142.3,824.1z"/>
		<path d="M1433.4,824c-13,0-26-0.1-39,0.1c-4.5,0.1-6.4-1.4-6.4-5.7c0.1-6.5,0-12.9-0.1-19.4c-0.1-6.5-0.5-7.1-7.3-7.5
			c-16.7-1.1-33.1-4-48.6-9.9c-46.2-17.6-70.8-50.5-75.2-97.1c-2.1-22-0.1-43.7,8.6-64.6c13.5-32.6,39.4-52.5,73.5-63.3
			c12.9-4.1,26.9-5.6,40.5-7.7c8.3-1.3,8.5-0.8,8.6-8.8c0.1-6.1,0.2-12.3,0.2-18.4c0-3.6,1.8-5,5.5-5c26.8,0.1,53.6,0.1,80.4,0
			c4,0,5.7,1.6,5.7,5.4c0,6.1,0.1,12.3,0.3,18.4c0.2,7.3,0.5,7.6,8.3,8.2c15.5,1.3,30.7,3.8,45.3,9.1c44.6,16.3,70.6,46.6,77.1,91.8
			c4.1,28.2,0.9,55.3-12.8,80.9c-15.4,28.7-41.2,45.7-73.1,54.6c-12.3,3.5-25.4,4.7-38.2,6.4c-4.6,0.6-6.5,2.2-6.4,6.5
			c0.1,6.5-0.1,12.9-0.2,19.4c-0.1,5.6-1.3,6.7-7.1,6.7C1459.7,824.1,1446.5,824,1433.4,824C1433.4,824,1433.4,824,1433.4,824z
			 M1478.8,670.4c0,0,0.1,0,0.1,0c0,16.4,0,32.7,0,49.1c0,6.8,1.6,8.1,8.7,6.6c22.2-4.7,36.4-17.4,42-38.3
			c2.9-10.7,2.6-21.5,0.7-32.3c-3.7-20.8-21.1-37.8-42.4-41.3c-7.9-1.3-9.1-0.5-9.1,7.2C1478.8,637.7,1478.8,654.1,1478.8,670.4z
			 M1389.2,669.9c-0.1,0-0.3,0-0.4,0c0-16.7,0-33.4,0-50.1c0-6.6-0.4-6.9-7.1-5.8c-19,3.1-32.5,12.9-40.2,29.7
			c-5.2,11.4-6.5,23.3-5,35.6c2.9,24.1,19.5,42.1,43.7,46.8c7.7,1.5,8.9,0.8,8.9-6.7C1389.2,703,1389.2,686.4,1389.2,669.9z"/>
		<path d="M1928.1,674.8c0,19.9-2.8,43.4-11.6,66c-17.7,45.4-51.8,71.5-100.8,80.2c-29.8,5.3-59.4,3.9-88.3-5.3
			c-39.8-12.7-66.6-38.7-79.9-76.5c-15.8-44.9-16.6-90.7-0.1-135.8c17.9-49.1,54.7-76.7,107.9-84.5c29.9-4.4,59.1-2.5,87.3,8.3
			c40.5,15.6,65.1,44.7,77.6,84.4C1926.4,630.9,1927.9,650.7,1928.1,674.8z M1781.8,604.1c-31.2,0-56.4,29.7-56.4,66.3
			c0,36.6,25.3,66.3,56.4,66.3s56.4-29.7,56.4-66.3C1838.2,633.8,1812.9,604.1,1781.8,604.1z"/>
		<path d="M1140.3,664.3c-2.3,3.5-4.9,6.8-6.7,10.4c-23.4,45.6-46.8,91.2-69.8,136.9c-4.5,8.9-10.3,12.7-20.1,12.4
			c-21.5-0.6-43-0.2-64.5-0.3c-6.9,0-7.8-0.9-7.9-8c-0.1-53.5-0.2-107-0.1-160.5c0-30.2-0.3-60.4,0.7-90.5
			c0.8-24,17.8-43.9,39.7-46.7c13.5-1.7,27.3-0.7,40.9-0.8c3.8,0,4.4,2.9,4.4,6.1c0,7.9,0,15.8,0,23.7c0,37.7,0,75.4,0.1,113.2
			c0,3.9,0.6,7.7,1,11.6c0.5,0.2,0.9,0.3,1.4,0.5c1.9-2.6,4.1-5.1,5.6-7.9c20-37.9,39.8-76,59.8-113.9c2.8-5.3,5.6-10.5,9-15.4
			c9.1-13,21.8-18.6,37.1-18.5c16.2,0.1,32.3,0.4,48.5,0.5c9.2,0.1,9.3,0,9.3,9.4c0,93.6,0,187.2,0,280.8c0,2.6,0,5.1,0,7.7
			c0,7.9-0.6,8.7-8.1,8.7c-23.2,0.1-46.3,0-69.5,0c-7.2,0-8.3-1-8.3-8.8c-0.1-45.9,0-91.9-0.1-137.8c0-4.1-0.5-8.2-0.8-12.2
			C1141.4,664.7,1140.8,664.5,1140.3,664.3z"/>
		<path d="M2356.7,823.4c0.4-2.5,0.6-4.5,1.1-6.4c23.4-86.1,46.8-172.2,70.5-258.2c1.9-6.8,4.7-13.6,8.2-19.6
			c8.5-14.5,21.4-22.1,38.1-22.2c24.5-0.2,49-0.4,73.4-0.1c25.8,0.2,46.6,22.5,47,50.6c0.6,40.2,0.9,80.3,1,120.5
			c0.2,42.4,0,84.8,0,127.2c0,8.8-0.3,9.1-8.6,9.1c-21,0-42,0-63-0.1c-7.3,0-8.1-0.8-8.1-8.2c-0.1-19.8-0.1-39.6-0.1-59.5
			c0-7.6-0.7-8.3-8.4-8.4c-14,0-28,0-42,0c-7.6,0-8.7,0.9-10.5,8.6c-4.8,20.2-9.6,40.4-14.3,60.7c-1.1,4.6-3.1,7-8.1,6.9
			c-23.6-0.2-47.3-0.1-71-0.1C2360.4,824,2358.8,823.7,2356.7,823.4z M2516.3,645.8C2516.3,645.8,2516.3,645.8,2516.3,645.8
			c0.1-6.7,0.1-13.3,0.1-20c0-16.4-2.4-18.6-18.4-17.3c-4.3,0.3-6.6,2.2-7.7,6.4c-4.8,19.1-9.7,38.2-14.7,57.3c-1.1,4.2,0.2,6,4.5,6
			c10.1-0.2,20.3-0.2,30.4-0.1c4.3,0,5.9-2,5.8-6.3C2516.2,663.2,2516.3,654.5,2516.3,645.8z"/>
		<path d="M941.7,690.9c0,41.4,0,82.9,0,124.3c0,7.8-1,8.9-8.6,8.9c-20.2,0-40.3,0.1-60.5,0c-9.5,0-9.9-0.5-10-10
			c0-19.1,0-38.2-0.1-57.3c0-7.4-1.3-8.7-8.4-8.7c-14.5,0-29,0.1-43.5-0.1c-5.2-0.1-7.9,2-9.1,7.3c-4.5,19.7-9.3,39.4-13.8,59.1
			c-2.2,9.3-2.4,9.7-12,9.7c-22,0-44,0-65.9-0.1c-7.1,0-7.8-1.1-5.9-8.2c23.6-86,47.4-172,70.6-258.1c6.3-23.4,24.8-41.6,52.8-40.6
			c20.8,0.8,41.6,0.2,62.4,0.1c29.2-0.1,50.7,20.4,51.1,50.4c0.5,41.1,0.1,82.2,0.1,123.3C941.2,690.9,941.5,690.9,941.7,690.9z
			 M862.6,646.8C862.6,646.8,862.6,646.8,862.6,646.8c0.1-7.7,0.1-15.3,0-23c-0.1-12.5-1.9-14.2-13.9-14.3c-1.2,0-2.3,0.1-3.5,0
			c-5.3-0.5-8.1,2.1-9.3,7.1c-4.7,18.6-9.5,37.2-14.2,55.8c-1.4,5.4-0.5,6.5,4.8,6.6c9.8,0.1,19.6-0.1,29.5,0.1
			c4.7,0.1,6.7-2,6.6-6.7C862.5,663.8,862.6,655.3,862.6,646.8z"/>
		<path d="M1099,493.7c-24.6-0.4-43.7-20.3-43.4-45.3c0.3-24.2,20.4-43.2,45.2-42.9c23.8,0.3,43.8,20.7,43.5,44.5
			C1144.1,474,1123.3,494,1099,493.7z"/>
		<path d="M575,398.7c-2,33.4-17.5,58.9-45.4,77.1c-10.5,6.8-21.8,10.5-34.3,10.5c-6.8,0-8.3-1.5-8.3-8.2c-0.4-27,12-48.3,30.8-66.3
			c13.6-13.1,30-21.3,48.7-24.5c7.3-1.2,8.4-0.2,8.6,7.3C575,396,575,397.4,575,398.7z"/>
	</g>
</g>
</svg>
